# xmcd
#
# Track frame offsets: 
#        183
#        17945
#        49183
#        72545
#
# Disc length: 1212 seconds
#
# Revision: 2
# Processed by: cddbd v1.5.2PL0 Copyright (c) Steve Scherf et al.
# Submitted via: ExactAudioCopy v0.90b4
#
DISCID=3604ba04
DTITLE=INXS - Suicide Blonde (Maxi CD)
DYEAR=1990
DGENRE=Rock
TTITLE0=Suicide Blonde (7" Version)
TTITLE1=Suicide Blonde (Demolition Mix)
TTITLE2=Everybody Wants U Tonight
TTITLE3=Suicide Blonde (Milk Mix)
EXTD=
EXTT0=
EXTT1=
EXTT2=
EXTT3=
PLAYORDER=
